<?xml version="1.0" encoding="UTF-8" standalone="no"?><!DOCTYPE svg PUBLIC "-//W3C//DTD SVG 1.1//EN" "http://www.w3.org/Graphics/SVG/1.1/DTD/svg11.dtd"><svg width="100%" height="100%" viewBox="0 0 32 32" version="1.1" xmlns="http://www.w3.org/2000/svg" xmlns:xlink="http://www.w3.org/1999/xlink" xml:space="preserve" xmlns:serif="http://www.serif.com/" style="fill-rule:evenodd;clip-rule:evenodd;stroke-linejoin:round;stroke-miterlimit:2;"><rect id="Artboard1" x="0" y="0" width="32" height="32" style="fill:none;"/><g id="Artboard11" serif:id="Artboard1"><path d="M30.577,7.021l0,9.67c0,2.669 -2.167,4.835 -4.835,4.835l-10.471,0l-8.018,8.289l3.644,-8.289l-4.64,0c-2.669,0 -4.835,-2.167 -4.835,-4.835l0,-9.67c0,-2.669 2.167,-4.835 4.835,-4.835l19.485,0c2.669,0 4.835,2.167 4.835,4.835Z" style="fill:#059669;"/><path d="M27.175,8.34l0,7.278c0,2.009 -1.631,3.639 -3.639,3.639l-14.99,0c-2.009,0 -3.639,-1.631 -3.639,-3.639l0,-7.278c0,-2.009 1.631,-3.639 3.639,-3.639l14.99,0c2.009,0 3.639,1.631 3.639,3.639Z" style="fill:#fff;"/><circle cx="8.342" cy="11.979" r="1.351" style="fill:#059669;fill-opacity:0.49;"/><circle cx="23.615" cy="11.979" r="1.351" style="fill:#059966;"/><circle cx="16" cy="11.979" r="1.351" style="fill:#059669;fill-opacity:0.75;"/></g></svg>